<?xml version="1.0" standalone="no"?>
<!DOCTYPE svg PUBLIC "-//W3C//DTD SVG 20010904//EN"
 "http://www.w3.org/TR/2001/REC-SVG-20010904/DTD/svg10.dtd">
<svg version="1.0" xmlns="http://www.w3.org/2000/svg"
 width="192.000000pt" height="192.000000pt" viewBox="0 0 192.000000 192.000000"
 preserveAspectRatio="xMidYMid meet">
<metadata>
Created by potrace 1.11, written by Peter Selinger 2001-2013
</metadata>
<g transform="translate(0.000000,192.000000) scale(0.100000,-0.100000)"
fill="#000000" stroke="none">
<path d="M959 1806 c-2 -2 -32 -6 -66 -9 -125 -12 -272 -65 -380 -137 -60 -41
-168 -149 -211 -213 -59 -85 -114 -210 -127 -289 -3 -18 -10 -48 -15 -65 -9
-36 -6 -251 4 -296 18 -78 36 -137 55 -180 64 -148 182 -289 313 -374 80 -51
221 -108 298 -119 62 -9 217 -9 269 0 89 15 270 85 279 108 2 4 8 8 14 8 30 0
178 142 242 232 26 38 44 68 39 68 -4 0 -3 4 2 8 9 6 34 52 41 77 2 6 13 37
24 69 12 33 23 71 25 85 2 14 6 42 9 61 36 213 -38 480 -181 656 -58 71 -162
161 -231 200 -49 27 -162 75 -162 68 0 -2 -8 0 -18 5 -24 13 -62 20 -142 27
-35 3 -67 7 -71 10 -3 2 -8 2 -10 0z"/>
</g>
</svg>
